<mxfile host="app.diagrams.net" modified="2024-06-01T09:49:31.714Z" agent="Mozilla/5.0 (Windows NT 10.0; Win64; x64; rv:126.0) Gecko/20100101 Firefox/126.0" version="24.4.13" etag="ynOsZf7SlZ4qQk8PMQl7" type="github">
  <diagram name="Page-1" id="0VhPPy5vEU-ERe5ps067">
    <mxGraphModel>
      <root>
        <mxCell id="0" />
        <mxCell id="1" parent="0" />
      </root>
    </mxGraphModel>
  </diagram>
</mxfile>
